G75*
G70*
%OFA0B0*%
%FSLAX24Y24*%
%IPPOS*%
%LPD*%
%AMOC8*
5,1,8,0,0,1.08239X$1,22.5*
%
%ADD10C,0.0000*%
%ADD11C,0.0600*%
%ADD12OC8,0.0520*%
%ADD13C,0.0520*%
%ADD14R,0.0515X0.0515*%
%ADD15C,0.0594*%
%ADD16C,0.0160*%
%ADD17C,0.0120*%
%ADD18R,0.0356X0.0356*%
D10*
X000300Y000100D02*
X000300Y016096D01*
X019170Y016096D01*
X019170Y000100D01*
X000300Y000100D01*
X000670Y001100D02*
X000672Y001150D01*
X000678Y001200D01*
X000688Y001249D01*
X000702Y001297D01*
X000719Y001344D01*
X000740Y001389D01*
X000765Y001433D01*
X000793Y001474D01*
X000825Y001513D01*
X000859Y001550D01*
X000896Y001584D01*
X000936Y001614D01*
X000978Y001641D01*
X001022Y001665D01*
X001068Y001686D01*
X001115Y001702D01*
X001163Y001715D01*
X001213Y001724D01*
X001262Y001729D01*
X001313Y001730D01*
X001363Y001727D01*
X001412Y001720D01*
X001461Y001709D01*
X001509Y001694D01*
X001555Y001676D01*
X001600Y001654D01*
X001643Y001628D01*
X001684Y001599D01*
X001723Y001567D01*
X001759Y001532D01*
X001791Y001494D01*
X001821Y001454D01*
X001848Y001411D01*
X001871Y001367D01*
X001890Y001321D01*
X001906Y001273D01*
X001918Y001224D01*
X001926Y001175D01*
X001930Y001125D01*
X001930Y001075D01*
X001926Y001025D01*
X001918Y000976D01*
X001906Y000927D01*
X001890Y000879D01*
X001871Y000833D01*
X001848Y000789D01*
X001821Y000746D01*
X001791Y000706D01*
X001759Y000668D01*
X001723Y000633D01*
X001684Y000601D01*
X001643Y000572D01*
X001600Y000546D01*
X001555Y000524D01*
X001509Y000506D01*
X001461Y000491D01*
X001412Y000480D01*
X001363Y000473D01*
X001313Y000470D01*
X001262Y000471D01*
X001213Y000476D01*
X001163Y000485D01*
X001115Y000498D01*
X001068Y000514D01*
X001022Y000535D01*
X000978Y000559D01*
X000936Y000586D01*
X000896Y000616D01*
X000859Y000650D01*
X000825Y000687D01*
X000793Y000726D01*
X000765Y000767D01*
X000740Y000811D01*
X000719Y000856D01*
X000702Y000903D01*
X000688Y000951D01*
X000678Y001000D01*
X000672Y001050D01*
X000670Y001100D01*
X000670Y015100D02*
X000672Y015150D01*
X000678Y015200D01*
X000688Y015249D01*
X000702Y015297D01*
X000719Y015344D01*
X000740Y015389D01*
X000765Y015433D01*
X000793Y015474D01*
X000825Y015513D01*
X000859Y015550D01*
X000896Y015584D01*
X000936Y015614D01*
X000978Y015641D01*
X001022Y015665D01*
X001068Y015686D01*
X001115Y015702D01*
X001163Y015715D01*
X001213Y015724D01*
X001262Y015729D01*
X001313Y015730D01*
X001363Y015727D01*
X001412Y015720D01*
X001461Y015709D01*
X001509Y015694D01*
X001555Y015676D01*
X001600Y015654D01*
X001643Y015628D01*
X001684Y015599D01*
X001723Y015567D01*
X001759Y015532D01*
X001791Y015494D01*
X001821Y015454D01*
X001848Y015411D01*
X001871Y015367D01*
X001890Y015321D01*
X001906Y015273D01*
X001918Y015224D01*
X001926Y015175D01*
X001930Y015125D01*
X001930Y015075D01*
X001926Y015025D01*
X001918Y014976D01*
X001906Y014927D01*
X001890Y014879D01*
X001871Y014833D01*
X001848Y014789D01*
X001821Y014746D01*
X001791Y014706D01*
X001759Y014668D01*
X001723Y014633D01*
X001684Y014601D01*
X001643Y014572D01*
X001600Y014546D01*
X001555Y014524D01*
X001509Y014506D01*
X001461Y014491D01*
X001412Y014480D01*
X001363Y014473D01*
X001313Y014470D01*
X001262Y014471D01*
X001213Y014476D01*
X001163Y014485D01*
X001115Y014498D01*
X001068Y014514D01*
X001022Y014535D01*
X000978Y014559D01*
X000936Y014586D01*
X000896Y014616D01*
X000859Y014650D01*
X000825Y014687D01*
X000793Y014726D01*
X000765Y014767D01*
X000740Y014811D01*
X000719Y014856D01*
X000702Y014903D01*
X000688Y014951D01*
X000678Y015000D01*
X000672Y015050D01*
X000670Y015100D01*
X017170Y015100D02*
X017172Y015150D01*
X017178Y015200D01*
X017188Y015249D01*
X017202Y015297D01*
X017219Y015344D01*
X017240Y015389D01*
X017265Y015433D01*
X017293Y015474D01*
X017325Y015513D01*
X017359Y015550D01*
X017396Y015584D01*
X017436Y015614D01*
X017478Y015641D01*
X017522Y015665D01*
X017568Y015686D01*
X017615Y015702D01*
X017663Y015715D01*
X017713Y015724D01*
X017762Y015729D01*
X017813Y015730D01*
X017863Y015727D01*
X017912Y015720D01*
X017961Y015709D01*
X018009Y015694D01*
X018055Y015676D01*
X018100Y015654D01*
X018143Y015628D01*
X018184Y015599D01*
X018223Y015567D01*
X018259Y015532D01*
X018291Y015494D01*
X018321Y015454D01*
X018348Y015411D01*
X018371Y015367D01*
X018390Y015321D01*
X018406Y015273D01*
X018418Y015224D01*
X018426Y015175D01*
X018430Y015125D01*
X018430Y015075D01*
X018426Y015025D01*
X018418Y014976D01*
X018406Y014927D01*
X018390Y014879D01*
X018371Y014833D01*
X018348Y014789D01*
X018321Y014746D01*
X018291Y014706D01*
X018259Y014668D01*
X018223Y014633D01*
X018184Y014601D01*
X018143Y014572D01*
X018100Y014546D01*
X018055Y014524D01*
X018009Y014506D01*
X017961Y014491D01*
X017912Y014480D01*
X017863Y014473D01*
X017813Y014470D01*
X017762Y014471D01*
X017713Y014476D01*
X017663Y014485D01*
X017615Y014498D01*
X017568Y014514D01*
X017522Y014535D01*
X017478Y014559D01*
X017436Y014586D01*
X017396Y014616D01*
X017359Y014650D01*
X017325Y014687D01*
X017293Y014726D01*
X017265Y014767D01*
X017240Y014811D01*
X017219Y014856D01*
X017202Y014903D01*
X017188Y014951D01*
X017178Y015000D01*
X017172Y015050D01*
X017170Y015100D01*
X017170Y001100D02*
X017172Y001150D01*
X017178Y001200D01*
X017188Y001249D01*
X017202Y001297D01*
X017219Y001344D01*
X017240Y001389D01*
X017265Y001433D01*
X017293Y001474D01*
X017325Y001513D01*
X017359Y001550D01*
X017396Y001584D01*
X017436Y001614D01*
X017478Y001641D01*
X017522Y001665D01*
X017568Y001686D01*
X017615Y001702D01*
X017663Y001715D01*
X017713Y001724D01*
X017762Y001729D01*
X017813Y001730D01*
X017863Y001727D01*
X017912Y001720D01*
X017961Y001709D01*
X018009Y001694D01*
X018055Y001676D01*
X018100Y001654D01*
X018143Y001628D01*
X018184Y001599D01*
X018223Y001567D01*
X018259Y001532D01*
X018291Y001494D01*
X018321Y001454D01*
X018348Y001411D01*
X018371Y001367D01*
X018390Y001321D01*
X018406Y001273D01*
X018418Y001224D01*
X018426Y001175D01*
X018430Y001125D01*
X018430Y001075D01*
X018426Y001025D01*
X018418Y000976D01*
X018406Y000927D01*
X018390Y000879D01*
X018371Y000833D01*
X018348Y000789D01*
X018321Y000746D01*
X018291Y000706D01*
X018259Y000668D01*
X018223Y000633D01*
X018184Y000601D01*
X018143Y000572D01*
X018100Y000546D01*
X018055Y000524D01*
X018009Y000506D01*
X017961Y000491D01*
X017912Y000480D01*
X017863Y000473D01*
X017813Y000470D01*
X017762Y000471D01*
X017713Y000476D01*
X017663Y000485D01*
X017615Y000498D01*
X017568Y000514D01*
X017522Y000535D01*
X017478Y000559D01*
X017436Y000586D01*
X017396Y000616D01*
X017359Y000650D01*
X017325Y000687D01*
X017293Y000726D01*
X017265Y000767D01*
X017240Y000811D01*
X017219Y000856D01*
X017202Y000903D01*
X017188Y000951D01*
X017178Y001000D01*
X017172Y001050D01*
X017170Y001100D01*
D11*
X017350Y004100D02*
X016750Y004100D01*
X016750Y005100D02*
X017350Y005100D01*
X017350Y006100D02*
X016750Y006100D01*
X016750Y007100D02*
X017350Y007100D01*
X017350Y008100D02*
X016750Y008100D01*
X016750Y009100D02*
X017350Y009100D01*
X017350Y010100D02*
X016750Y010100D01*
X016750Y011100D02*
X017350Y011100D01*
D12*
X010300Y006600D03*
X009300Y006600D03*
X008300Y006600D03*
X007300Y006600D03*
X007300Y002600D03*
X008300Y002600D03*
X009300Y002600D03*
X010300Y002600D03*
X013300Y002850D03*
X014300Y002850D03*
D13*
X015040Y004100D02*
X015560Y004100D01*
X015560Y005100D02*
X015040Y005100D01*
X015040Y006100D02*
X015560Y006100D01*
X015560Y007100D02*
X015040Y007100D01*
X015040Y008100D02*
X015560Y008100D01*
X015560Y009100D02*
X015040Y009100D01*
X015040Y010100D02*
X015560Y010100D01*
X015560Y011100D02*
X015040Y011100D01*
X015040Y012100D02*
X015560Y012100D01*
X012560Y012100D02*
X012040Y012100D01*
X012040Y011100D02*
X012560Y011100D01*
X012560Y010100D02*
X012040Y010100D01*
X011060Y010100D02*
X010540Y010100D01*
X010540Y009100D02*
X011060Y009100D01*
X012040Y009100D02*
X012560Y009100D01*
X012560Y008100D02*
X012040Y008100D01*
X011060Y008100D02*
X010540Y008100D01*
X012040Y007100D02*
X012560Y007100D01*
X012560Y006100D02*
X012040Y006100D01*
X012040Y005100D02*
X012560Y005100D01*
X012560Y004100D02*
X012040Y004100D01*
X008060Y008100D02*
X007540Y008100D01*
X007540Y009100D02*
X008060Y009100D01*
X008060Y010100D02*
X007540Y010100D01*
D14*
X003300Y010350D03*
X002300Y010350D03*
X002300Y011350D03*
X002300Y012350D03*
X003300Y012350D03*
X003300Y011350D03*
X003300Y005850D03*
X002300Y005850D03*
X002300Y004850D03*
X002300Y003850D03*
X003300Y003850D03*
X003300Y004850D03*
D15*
X006300Y006100D03*
X006300Y003100D03*
X007800Y013850D03*
X008800Y013850D03*
X009800Y013850D03*
D16*
X009800Y014600D01*
X003550Y014600D01*
X003550Y013350D01*
X001300Y013350D01*
X001300Y012350D01*
X002300Y012350D01*
X001800Y011850D02*
X001800Y007350D01*
X003300Y007350D01*
X003300Y005850D01*
X003800Y005350D02*
X003800Y008850D01*
X002300Y008850D01*
X002300Y010350D01*
X002550Y010850D02*
X002550Y011100D01*
X002300Y011350D01*
X002800Y011850D02*
X001800Y011850D01*
X001300Y012350D02*
X001300Y005850D01*
X002300Y005850D01*
X001300Y005350D02*
X003800Y005350D01*
X003300Y004850D02*
X004550Y004850D01*
X005300Y005600D01*
X005300Y009850D01*
X004800Y008850D02*
X003300Y010350D01*
X002550Y010850D02*
X004800Y010850D01*
X005050Y011100D01*
X005800Y011600D01*
X005800Y004600D01*
X005550Y004350D01*
X002550Y004350D01*
X002300Y004850D01*
X001300Y005350D02*
X001300Y003850D01*
X002300Y003850D01*
X002300Y002350D01*
X003050Y002350D01*
X003050Y001100D01*
X005800Y001100D01*
X007300Y002600D01*
X008300Y002600D01*
X009300Y002600D01*
X010300Y001600D01*
X012550Y001600D01*
X013300Y002350D01*
X013300Y002850D01*
X014300Y002850D02*
X014300Y004350D01*
X014050Y004350D01*
X012050Y002600D01*
X010300Y002600D01*
X009300Y002600D02*
X009300Y003350D01*
X010050Y004100D01*
X012300Y004100D01*
X012300Y005100D02*
X008300Y005100D01*
X006300Y003100D01*
X006050Y003850D02*
X006300Y004100D01*
X006300Y006100D01*
X006300Y008100D01*
X007550Y007600D02*
X008550Y007600D01*
X008550Y010100D01*
X010800Y010100D01*
X012300Y010100D01*
X012300Y009100D02*
X010800Y009100D01*
X009050Y009100D01*
X009050Y007100D01*
X008800Y007100D01*
X008800Y006600D01*
X008300Y006600D01*
X007550Y006850D02*
X007550Y007600D01*
X007800Y008100D02*
X007800Y009100D01*
X007800Y010100D01*
X007800Y010600D01*
X014300Y010600D01*
X014300Y012100D01*
X014300Y013100D01*
X008800Y013100D01*
X008800Y013850D01*
X007800Y013850D02*
X005800Y013850D01*
X005800Y012850D01*
X003300Y012850D01*
X003300Y012350D01*
X002800Y011850D01*
X003300Y011350D02*
X004300Y012100D01*
X005300Y012100D01*
X012300Y012100D01*
X012300Y011100D02*
X010800Y011100D01*
X010800Y011600D01*
X005800Y011600D01*
X004800Y008850D02*
X004800Y008100D01*
X007300Y006600D02*
X007550Y006850D01*
X009300Y006600D02*
X009800Y006600D01*
X009800Y008100D01*
X010800Y008100D01*
X012300Y008100D01*
X012300Y007100D02*
X010800Y007100D01*
X010300Y006600D01*
X006050Y003850D02*
X003300Y003850D01*
X014300Y002850D02*
X014300Y010600D01*
X015300Y010100D02*
X017050Y010100D01*
X017050Y009100D02*
X015300Y009100D01*
X015300Y008100D02*
X017050Y008100D01*
X017050Y007100D02*
X015300Y007100D01*
X015300Y006100D02*
X017050Y006100D01*
X017050Y005100D02*
X015300Y005100D01*
X015300Y004100D02*
X017050Y004100D01*
X017050Y011100D02*
X015300Y011100D01*
X015300Y012100D02*
X014300Y012100D01*
D17*
X014580Y012380D02*
X014580Y013156D01*
X014537Y013259D01*
X014459Y013337D01*
X014356Y013380D01*
X009964Y013380D01*
X010081Y013429D01*
X010221Y013569D01*
X010297Y013751D01*
X010297Y013949D01*
X010221Y014131D01*
X010081Y014271D01*
X010080Y014272D01*
X010080Y014656D01*
X010037Y014759D01*
X009959Y014837D01*
X009856Y014880D01*
X003494Y014880D01*
X003391Y014837D01*
X003313Y014759D01*
X003270Y014656D01*
X003270Y013630D01*
X001244Y013630D01*
X001141Y013587D01*
X001063Y013509D01*
X001020Y013406D01*
X001020Y005794D01*
X001063Y005691D01*
X001141Y005613D01*
X001244Y005570D01*
X001843Y005570D01*
X001843Y005510D01*
X001960Y005393D01*
X002640Y005393D01*
X002757Y005510D01*
X002757Y006190D01*
X002640Y006307D01*
X001960Y006307D01*
X001843Y006190D01*
X001843Y006130D01*
X001580Y006130D01*
X001580Y007174D01*
X001641Y007113D01*
X001744Y007070D01*
X003020Y007070D01*
X003020Y006307D01*
X002960Y006307D01*
X002843Y006190D01*
X002843Y005510D01*
X002960Y005393D01*
X003640Y005393D01*
X003757Y005510D01*
X003757Y006190D01*
X003640Y006307D01*
X003580Y006307D01*
X003580Y007406D01*
X003537Y007509D01*
X003459Y007587D01*
X003356Y007630D01*
X002080Y007630D01*
X002080Y009933D01*
X002281Y009933D01*
X002281Y010331D01*
X002319Y010331D01*
X002319Y010369D01*
X002717Y010369D01*
X002717Y010570D01*
X002843Y010570D01*
X002843Y010010D01*
X002960Y009893D01*
X003361Y009893D01*
X004520Y008734D01*
X004520Y008459D01*
X004422Y008361D01*
X004422Y007839D01*
X004539Y007722D01*
X005020Y007722D01*
X005020Y005716D01*
X004434Y005130D01*
X003757Y005130D01*
X003757Y005190D01*
X003640Y005307D01*
X002960Y005307D01*
X002843Y005190D01*
X002843Y004630D01*
X002757Y004630D01*
X002757Y005190D01*
X002640Y005307D01*
X001960Y005307D01*
X001843Y005190D01*
X001843Y004510D01*
X001960Y004393D01*
X002216Y004393D01*
X002278Y004267D01*
X002021Y004267D01*
X001981Y004257D01*
X001944Y004236D01*
X001914Y004206D01*
X001893Y004169D01*
X001883Y004129D01*
X000550Y004129D01*
X000550Y004011D02*
X001883Y004011D01*
X001883Y004129D02*
X001883Y003869D01*
X002281Y003869D01*
X002281Y003831D01*
X002319Y003831D01*
X002319Y003869D01*
X002717Y003869D01*
X002717Y004070D01*
X002843Y004070D01*
X002843Y003510D01*
X002960Y003393D01*
X003640Y003393D01*
X003757Y003510D01*
X003757Y003570D01*
X006106Y003570D01*
X006209Y003613D01*
X006459Y003863D01*
X006537Y003941D01*
X006580Y004044D01*
X006580Y005678D01*
X006581Y005679D01*
X006721Y005819D01*
X006797Y006001D01*
X006797Y006199D01*
X006721Y006381D01*
X006581Y006521D01*
X006580Y006522D01*
X006580Y007741D01*
X006678Y007839D01*
X006678Y008361D01*
X006561Y008478D01*
X006080Y008478D01*
X006080Y011320D01*
X010520Y011320D01*
X010520Y011044D01*
X010563Y010941D01*
X010624Y010880D01*
X007744Y010880D01*
X007641Y010837D01*
X007563Y010759D01*
X007520Y010656D01*
X007520Y010560D01*
X007448Y010560D01*
X007279Y010490D01*
X007150Y010361D01*
X007080Y010191D01*
X007080Y010008D01*
X007150Y009839D01*
X007279Y009710D01*
X007448Y009640D01*
X007520Y009640D01*
X007520Y009560D01*
X007448Y009560D01*
X007279Y009490D01*
X007150Y009361D01*
X007080Y009191D01*
X007080Y009008D01*
X007150Y008839D01*
X007279Y008710D01*
X007448Y008640D01*
X007520Y008640D01*
X007520Y008560D01*
X007448Y008560D01*
X007279Y008490D01*
X007150Y008361D01*
X007080Y008191D01*
X007080Y008008D01*
X007150Y007839D01*
X007279Y007710D01*
X007291Y007705D01*
X007270Y007656D01*
X007270Y007060D01*
X007109Y007060D01*
X006840Y006791D01*
X006840Y006409D01*
X007109Y006140D01*
X007491Y006140D01*
X007760Y006409D01*
X007760Y006664D01*
X007787Y006691D01*
X007830Y006794D01*
X007830Y007320D01*
X008606Y007320D01*
X008637Y007333D01*
X008563Y007259D01*
X008520Y007156D01*
X008520Y007031D01*
X008491Y007060D01*
X008109Y007060D01*
X007840Y006791D01*
X007840Y006409D01*
X008109Y006140D01*
X008491Y006140D01*
X008671Y006320D01*
X008856Y006320D01*
X008908Y006342D01*
X009109Y006140D01*
X009491Y006140D01*
X009671Y006320D01*
X009856Y006320D01*
X009908Y006342D01*
X010109Y006140D01*
X010491Y006140D01*
X010760Y006409D01*
X010760Y006664D01*
X010916Y006820D01*
X011669Y006820D01*
X011779Y006710D01*
X011948Y006640D01*
X012651Y006640D01*
X012821Y006710D01*
X012950Y006839D01*
X013020Y007008D01*
X013020Y007191D01*
X012950Y007361D01*
X012821Y007490D01*
X012651Y007560D01*
X011948Y007560D01*
X011779Y007490D01*
X011669Y007380D01*
X010744Y007380D01*
X010641Y007337D01*
X010364Y007060D01*
X010109Y007060D01*
X010080Y007031D01*
X010080Y007820D01*
X010169Y007820D01*
X010279Y007710D01*
X010448Y007640D01*
X011151Y007640D01*
X011321Y007710D01*
X011431Y007820D01*
X011669Y007820D01*
X011779Y007710D01*
X011948Y007640D01*
X012651Y007640D01*
X012821Y007710D01*
X012950Y007839D01*
X013020Y008008D01*
X013020Y008191D01*
X012950Y008361D01*
X012821Y008490D01*
X012651Y008560D01*
X011948Y008560D01*
X011779Y008490D01*
X011669Y008380D01*
X011431Y008380D01*
X011321Y008490D01*
X011151Y008560D01*
X010448Y008560D01*
X010279Y008490D01*
X010169Y008380D01*
X009744Y008380D01*
X009641Y008337D01*
X009563Y008259D01*
X009520Y008156D01*
X009520Y007031D01*
X009491Y007060D01*
X009330Y007060D01*
X009330Y008820D01*
X010169Y008820D01*
X010279Y008710D01*
X010448Y008640D01*
X011151Y008640D01*
X011321Y008710D01*
X011431Y008820D01*
X011669Y008820D01*
X011779Y008710D01*
X011948Y008640D01*
X012651Y008640D01*
X012821Y008710D01*
X012950Y008839D01*
X013020Y009008D01*
X013020Y009191D01*
X012950Y009361D01*
X012821Y009490D01*
X012651Y009560D01*
X011948Y009560D01*
X011779Y009490D01*
X011669Y009380D01*
X011431Y009380D01*
X011321Y009490D01*
X011151Y009560D01*
X010448Y009560D01*
X010279Y009490D01*
X010169Y009380D01*
X008994Y009380D01*
X008891Y009337D01*
X008830Y009276D01*
X008830Y009820D01*
X010169Y009820D01*
X010279Y009710D01*
X010448Y009640D01*
X011151Y009640D01*
X011321Y009710D01*
X011431Y009820D01*
X011669Y009820D01*
X011779Y009710D01*
X011948Y009640D01*
X012651Y009640D01*
X012821Y009710D01*
X012950Y009839D01*
X013020Y010008D01*
X013020Y010191D01*
X012967Y010320D01*
X014020Y010320D01*
X014020Y004633D01*
X014013Y004633D01*
X014004Y004630D01*
X013994Y004630D01*
X013951Y004612D01*
X013908Y004597D01*
X013900Y004591D01*
X013891Y004587D01*
X013859Y004555D01*
X011945Y002880D01*
X010671Y002880D01*
X010491Y003060D01*
X010109Y003060D01*
X009840Y002791D01*
X009840Y002409D01*
X010109Y002140D01*
X010491Y002140D01*
X010671Y002320D01*
X012041Y002320D01*
X012087Y002317D01*
X012096Y002320D01*
X012106Y002320D01*
X012149Y002338D01*
X012192Y002353D01*
X012200Y002359D01*
X012209Y002363D01*
X012241Y002395D01*
X012880Y002954D01*
X012880Y002870D01*
X013280Y002870D01*
X013280Y003270D01*
X013241Y003270D01*
X014020Y003952D01*
X014020Y003221D01*
X013840Y003041D01*
X013840Y002659D01*
X014109Y002390D01*
X014491Y002390D01*
X014760Y002659D01*
X014760Y003041D01*
X014580Y003221D01*
X014580Y011820D01*
X014669Y011820D01*
X014779Y011710D01*
X014948Y011640D01*
X015651Y011640D01*
X015821Y011710D01*
X015950Y011839D01*
X016020Y012008D01*
X016020Y012191D01*
X015950Y012361D01*
X015821Y012490D01*
X015651Y012560D01*
X014948Y012560D01*
X014779Y012490D01*
X014669Y012380D01*
X014580Y012380D01*
X014580Y012424D02*
X014713Y012424D01*
X014580Y012543D02*
X014906Y012543D01*
X014580Y012661D02*
X018800Y012661D01*
X018800Y012543D02*
X015694Y012543D01*
X015887Y012424D02*
X018800Y012424D01*
X018800Y012306D02*
X015973Y012306D01*
X016020Y012187D02*
X018800Y012187D01*
X018800Y012069D02*
X016020Y012069D01*
X015996Y011950D02*
X018800Y011950D01*
X018800Y011832D02*
X015942Y011832D01*
X015824Y011713D02*
X018800Y011713D01*
X018800Y011595D02*
X017463Y011595D01*
X017449Y011600D02*
X016651Y011600D01*
X016467Y011524D01*
X016326Y011383D01*
X016325Y011380D01*
X015931Y011380D01*
X015821Y011490D01*
X015651Y011560D01*
X014948Y011560D01*
X014779Y011490D01*
X014650Y011361D01*
X014580Y011191D01*
X014580Y011008D01*
X014650Y010839D01*
X014779Y010710D01*
X014948Y010640D01*
X015651Y010640D01*
X015821Y010710D01*
X015931Y010820D01*
X016325Y010820D01*
X016326Y010817D01*
X016467Y010676D01*
X016651Y010600D01*
X017449Y010600D01*
X017633Y010676D01*
X017774Y010817D01*
X017850Y011001D01*
X017850Y011199D01*
X017774Y011383D01*
X017633Y011524D01*
X017449Y011600D01*
X017681Y011476D02*
X018800Y011476D01*
X018800Y011358D02*
X017785Y011358D01*
X017834Y011239D02*
X018800Y011239D01*
X018800Y011121D02*
X017850Y011121D01*
X017850Y011002D02*
X018800Y011002D01*
X018800Y010884D02*
X017802Y010884D01*
X017722Y010765D02*
X018800Y010765D01*
X018800Y010647D02*
X017562Y010647D01*
X017449Y010600D02*
X016651Y010600D01*
X016467Y010524D01*
X016326Y010383D01*
X016325Y010380D01*
X015931Y010380D01*
X015821Y010490D01*
X015651Y010560D01*
X014948Y010560D01*
X014779Y010490D01*
X014650Y010361D01*
X014580Y010191D01*
X014580Y010008D01*
X014650Y009839D01*
X014779Y009710D01*
X014948Y009640D01*
X015651Y009640D01*
X015821Y009710D01*
X015931Y009820D01*
X016325Y009820D01*
X016326Y009817D01*
X015928Y009817D01*
X015793Y009699D02*
X016444Y009699D01*
X016467Y009676D02*
X016651Y009600D01*
X016467Y009524D01*
X016326Y009383D01*
X016325Y009380D01*
X015931Y009380D01*
X015821Y009490D01*
X015651Y009560D01*
X014948Y009560D01*
X014779Y009490D01*
X014650Y009361D01*
X014580Y009191D01*
X014580Y009008D01*
X014650Y008839D01*
X014779Y008710D01*
X014948Y008640D01*
X015651Y008640D01*
X015821Y008710D01*
X015931Y008820D01*
X016325Y008820D01*
X016326Y008817D01*
X016467Y008676D01*
X016651Y008600D01*
X017449Y008600D01*
X017633Y008676D01*
X017774Y008817D01*
X017850Y009001D01*
X017850Y009199D01*
X017774Y009383D01*
X017633Y009524D01*
X017449Y009600D01*
X016651Y009600D01*
X017449Y009600D01*
X017633Y009676D01*
X017774Y009817D01*
X018800Y009817D01*
X018800Y009699D02*
X017656Y009699D01*
X017774Y009817D02*
X017850Y010001D01*
X017850Y010199D01*
X017774Y010383D01*
X017633Y010524D01*
X017449Y010600D01*
X017623Y010528D02*
X018800Y010528D01*
X018800Y010410D02*
X017748Y010410D01*
X017812Y010291D02*
X018800Y010291D01*
X018800Y010173D02*
X017850Y010173D01*
X017850Y010054D02*
X018800Y010054D01*
X018800Y009936D02*
X017823Y009936D01*
X017498Y009580D02*
X018800Y009580D01*
X018800Y009462D02*
X017696Y009462D01*
X017791Y009343D02*
X018800Y009343D01*
X018800Y009225D02*
X017840Y009225D01*
X017850Y009106D02*
X018800Y009106D01*
X018800Y008988D02*
X017845Y008988D01*
X017796Y008869D02*
X018800Y008869D01*
X018800Y008751D02*
X017708Y008751D01*
X017527Y008632D02*
X018800Y008632D01*
X018800Y008514D02*
X017644Y008514D01*
X017633Y008524D02*
X017449Y008600D01*
X016651Y008600D01*
X016467Y008524D01*
X016326Y008383D01*
X016325Y008380D01*
X015931Y008380D01*
X015821Y008490D01*
X015651Y008560D01*
X014948Y008560D01*
X014779Y008490D01*
X014650Y008361D01*
X014580Y008191D01*
X014580Y008008D01*
X014650Y007839D01*
X014779Y007710D01*
X014948Y007640D01*
X015651Y007640D01*
X015821Y007710D01*
X015931Y007820D01*
X016325Y007820D01*
X016326Y007817D01*
X016467Y007676D01*
X016651Y007600D01*
X016467Y007524D01*
X016326Y007383D01*
X016325Y007380D01*
X015931Y007380D01*
X015821Y007490D01*
X015651Y007560D01*
X014948Y007560D01*
X014779Y007490D01*
X014650Y007361D01*
X014580Y007191D01*
X014580Y007008D01*
X014650Y006839D01*
X014779Y006710D01*
X014948Y006640D01*
X015651Y006640D01*
X015821Y006710D01*
X015931Y006820D01*
X016325Y006820D01*
X016326Y006817D01*
X016467Y006676D01*
X016651Y006600D01*
X017449Y006600D01*
X017633Y006676D01*
X017774Y006817D01*
X017850Y007001D01*
X017850Y007199D01*
X017774Y007383D01*
X017633Y007524D01*
X017449Y007600D01*
X016651Y007600D01*
X017449Y007600D01*
X017633Y007676D01*
X017774Y007817D01*
X017850Y008001D01*
X017850Y008199D01*
X017774Y008383D01*
X017633Y008524D01*
X017762Y008395D02*
X018800Y008395D01*
X018800Y008277D02*
X017818Y008277D01*
X017850Y008158D02*
X018800Y008158D01*
X018800Y008040D02*
X017850Y008040D01*
X017817Y007921D02*
X018800Y007921D01*
X018800Y007803D02*
X017760Y007803D01*
X017641Y007684D02*
X018800Y007684D01*
X018800Y007566D02*
X017533Y007566D01*
X017710Y007447D02*
X018800Y007447D01*
X018800Y007329D02*
X017797Y007329D01*
X017846Y007210D02*
X018800Y007210D01*
X018800Y007092D02*
X017850Y007092D01*
X017839Y006973D02*
X018800Y006973D01*
X018800Y006855D02*
X017790Y006855D01*
X017693Y006736D02*
X018800Y006736D01*
X018800Y006618D02*
X017492Y006618D01*
X017449Y006600D02*
X016651Y006600D01*
X016467Y006524D01*
X016326Y006383D01*
X016325Y006380D01*
X015931Y006380D01*
X015821Y006490D01*
X015651Y006560D01*
X014948Y006560D01*
X014779Y006490D01*
X014650Y006361D01*
X014580Y006191D01*
X014580Y006008D01*
X014650Y005839D01*
X014779Y005710D01*
X014948Y005640D01*
X015651Y005640D01*
X015821Y005710D01*
X015931Y005820D01*
X016325Y005820D01*
X016326Y005817D01*
X016467Y005676D01*
X016651Y005600D01*
X016467Y005524D01*
X016326Y005383D01*
X016325Y005380D01*
X015931Y005380D01*
X015821Y005490D01*
X015651Y005560D01*
X014948Y005560D01*
X014779Y005490D01*
X014650Y005361D01*
X014580Y005191D01*
X014580Y005008D01*
X014650Y004839D01*
X014779Y004710D01*
X014948Y004640D01*
X015651Y004640D01*
X015821Y004710D01*
X015931Y004820D01*
X016325Y004820D01*
X016326Y004817D01*
X016467Y004676D01*
X016651Y004600D01*
X017449Y004600D01*
X017633Y004676D01*
X017774Y004817D01*
X017850Y005001D01*
X017850Y005199D01*
X017774Y005383D01*
X017633Y005524D01*
X017449Y005600D01*
X016651Y005600D01*
X017449Y005600D01*
X017633Y005676D01*
X017774Y005817D01*
X017850Y006001D01*
X017850Y006199D01*
X017774Y006383D01*
X017633Y006524D01*
X017449Y006600D01*
X017658Y006499D02*
X018800Y006499D01*
X018800Y006381D02*
X017775Y006381D01*
X017824Y006262D02*
X018800Y006262D01*
X018800Y006144D02*
X017850Y006144D01*
X017850Y006025D02*
X018800Y006025D01*
X018800Y005907D02*
X017811Y005907D01*
X017745Y005788D02*
X018800Y005788D01*
X018800Y005670D02*
X017617Y005670D01*
X017568Y005551D02*
X018800Y005551D01*
X018800Y005433D02*
X017725Y005433D01*
X017803Y005314D02*
X018800Y005314D01*
X018800Y005196D02*
X017850Y005196D01*
X017850Y005077D02*
X018800Y005077D01*
X018800Y004959D02*
X017833Y004959D01*
X017784Y004840D02*
X018800Y004840D01*
X018800Y004722D02*
X017679Y004722D01*
X017633Y004524D02*
X017449Y004600D01*
X016651Y004600D01*
X016467Y004524D01*
X016326Y004383D01*
X016325Y004380D01*
X015931Y004380D01*
X015821Y004490D01*
X015651Y004560D01*
X014948Y004560D01*
X014779Y004490D01*
X014650Y004361D01*
X014580Y004191D01*
X014580Y004008D01*
X014650Y003839D01*
X014779Y003710D01*
X014948Y003640D01*
X015651Y003640D01*
X015821Y003710D01*
X015931Y003820D01*
X016325Y003820D01*
X016326Y003817D01*
X016467Y003676D01*
X016651Y003600D01*
X017449Y003600D01*
X017633Y003676D01*
X017774Y003817D01*
X017850Y004001D01*
X017850Y004199D01*
X017774Y004383D01*
X017633Y004524D01*
X017673Y004485D02*
X018800Y004485D01*
X018800Y004603D02*
X017457Y004603D01*
X017781Y004366D02*
X018800Y004366D01*
X018800Y004248D02*
X017830Y004248D01*
X017850Y004129D02*
X018800Y004129D01*
X018800Y004011D02*
X017850Y004011D01*
X017805Y003892D02*
X018800Y003892D01*
X018800Y003774D02*
X017731Y003774D01*
X017582Y003655D02*
X018800Y003655D01*
X018800Y003537D02*
X014580Y003537D01*
X014580Y003655D02*
X014912Y003655D01*
X014716Y003774D02*
X014580Y003774D01*
X014580Y003892D02*
X014628Y003892D01*
X014580Y004011D02*
X014580Y004011D01*
X014580Y004129D02*
X014580Y004129D01*
X014580Y004248D02*
X014603Y004248D01*
X014580Y004366D02*
X014655Y004366D01*
X014580Y004485D02*
X014774Y004485D01*
X014580Y004603D02*
X016643Y004603D01*
X016427Y004485D02*
X015826Y004485D01*
X015832Y004722D02*
X016421Y004722D01*
X016375Y005433D02*
X015878Y005433D01*
X015673Y005551D02*
X016532Y005551D01*
X016483Y005670D02*
X015723Y005670D01*
X015899Y005788D02*
X016355Y005788D01*
X016325Y006381D02*
X015930Y006381D01*
X015799Y006499D02*
X016442Y006499D01*
X016608Y006618D02*
X014580Y006618D01*
X014580Y006736D02*
X014753Y006736D01*
X014644Y006855D02*
X014580Y006855D01*
X014580Y006973D02*
X014595Y006973D01*
X014580Y007092D02*
X014580Y007092D01*
X014580Y007210D02*
X014588Y007210D01*
X014580Y007329D02*
X014637Y007329D01*
X014580Y007447D02*
X014736Y007447D01*
X014580Y007566D02*
X016567Y007566D01*
X016459Y007684D02*
X015758Y007684D01*
X015913Y007803D02*
X016340Y007803D01*
X016390Y007447D02*
X015864Y007447D01*
X015847Y006736D02*
X016407Y006736D01*
X014927Y005551D02*
X014580Y005551D01*
X014580Y005433D02*
X014722Y005433D01*
X014631Y005314D02*
X014580Y005314D01*
X014580Y005196D02*
X014582Y005196D01*
X014580Y005077D02*
X014580Y005077D01*
X014580Y004959D02*
X014601Y004959D01*
X014580Y004840D02*
X014650Y004840D01*
X014580Y004722D02*
X014768Y004722D01*
X014020Y004722D02*
X012832Y004722D01*
X012821Y004710D02*
X012950Y004839D01*
X013020Y005008D01*
X013020Y005191D01*
X012950Y005361D01*
X012821Y005490D01*
X012651Y005560D01*
X011948Y005560D01*
X011779Y005490D01*
X011669Y005380D01*
X008244Y005380D01*
X008141Y005337D01*
X006400Y003596D01*
X006399Y003597D01*
X006201Y003597D01*
X006019Y003521D01*
X005879Y003381D01*
X005803Y003199D01*
X005803Y003001D01*
X005879Y002819D01*
X006019Y002679D01*
X006201Y002603D01*
X006399Y002603D01*
X006581Y002679D01*
X006721Y002819D01*
X006797Y003001D01*
X006797Y003199D01*
X006796Y003200D01*
X008416Y004820D01*
X011669Y004820D01*
X011779Y004710D01*
X011948Y004640D01*
X012651Y004640D01*
X012821Y004710D01*
X012950Y004840D02*
X014020Y004840D01*
X014020Y004959D02*
X012999Y004959D01*
X013020Y005077D02*
X014020Y005077D01*
X014020Y005196D02*
X013018Y005196D01*
X012969Y005314D02*
X014020Y005314D01*
X014020Y005433D02*
X012878Y005433D01*
X012673Y005551D02*
X014020Y005551D01*
X014020Y005670D02*
X012723Y005670D01*
X012651Y005640D02*
X012821Y005710D01*
X012950Y005839D01*
X013020Y006008D01*
X013020Y006191D01*
X012950Y006361D01*
X012821Y006490D01*
X012651Y006560D01*
X011948Y006560D01*
X011779Y006490D01*
X011650Y006361D01*
X011580Y006191D01*
X011580Y006008D01*
X011650Y005839D01*
X011779Y005710D01*
X011948Y005640D01*
X012651Y005640D01*
X012899Y005788D02*
X014020Y005788D01*
X014020Y005907D02*
X012978Y005907D01*
X013020Y006025D02*
X014020Y006025D01*
X014020Y006144D02*
X013020Y006144D01*
X012991Y006262D02*
X014020Y006262D01*
X014020Y006381D02*
X012930Y006381D01*
X012799Y006499D02*
X014020Y006499D01*
X014020Y006618D02*
X010760Y006618D01*
X010760Y006499D02*
X011801Y006499D01*
X011670Y006381D02*
X010731Y006381D01*
X010613Y006262D02*
X011609Y006262D01*
X011580Y006144D02*
X010494Y006144D01*
X010106Y006144D02*
X009494Y006144D01*
X009613Y006262D02*
X009987Y006262D01*
X009106Y006144D02*
X008494Y006144D01*
X008613Y006262D02*
X008987Y006262D01*
X008106Y006144D02*
X007494Y006144D01*
X007613Y006262D02*
X007987Y006262D01*
X007869Y006381D02*
X007731Y006381D01*
X007760Y006499D02*
X007840Y006499D01*
X007840Y006618D02*
X007760Y006618D01*
X007806Y006736D02*
X007840Y006736D01*
X007830Y006855D02*
X007904Y006855D01*
X007830Y006973D02*
X008022Y006973D01*
X007830Y007092D02*
X008520Y007092D01*
X008543Y007210D02*
X007830Y007210D01*
X007270Y007210D02*
X006580Y007210D01*
X006580Y007092D02*
X007270Y007092D01*
X007022Y006973D02*
X006580Y006973D01*
X006580Y006855D02*
X006904Y006855D01*
X006840Y006736D02*
X006580Y006736D01*
X006580Y006618D02*
X006840Y006618D01*
X006840Y006499D02*
X006604Y006499D01*
X006722Y006381D02*
X006869Y006381D01*
X006771Y006262D02*
X006987Y006262D01*
X007106Y006144D02*
X006797Y006144D01*
X006797Y006025D02*
X011580Y006025D01*
X011622Y005907D02*
X006758Y005907D01*
X006691Y005788D02*
X011701Y005788D01*
X011877Y005670D02*
X006580Y005670D01*
X006580Y005551D02*
X011927Y005551D01*
X011722Y005433D02*
X006580Y005433D01*
X006580Y005314D02*
X008118Y005314D01*
X008000Y005196D02*
X006580Y005196D01*
X006580Y005077D02*
X007881Y005077D01*
X007763Y004959D02*
X006580Y004959D01*
X006580Y004840D02*
X007644Y004840D01*
X007526Y004722D02*
X006580Y004722D01*
X006580Y004603D02*
X007407Y004603D01*
X007289Y004485D02*
X006580Y004485D01*
X006580Y004366D02*
X007170Y004366D01*
X007052Y004248D02*
X006580Y004248D01*
X006580Y004129D02*
X006933Y004129D01*
X006815Y004011D02*
X006566Y004011D01*
X006488Y003892D02*
X006696Y003892D01*
X006578Y003774D02*
X006369Y003774D01*
X006459Y003655D02*
X006251Y003655D01*
X006055Y003537D02*
X003757Y003537D01*
X003666Y003418D02*
X005915Y003418D01*
X005845Y003300D02*
X000550Y003300D01*
X000550Y003418D02*
X002934Y003418D01*
X002843Y003537D02*
X002708Y003537D01*
X002707Y003531D02*
X002717Y003571D01*
X002717Y003831D01*
X002319Y003831D01*
X002319Y003433D01*
X002579Y003433D01*
X002619Y003443D01*
X002656Y003464D01*
X002686Y003494D01*
X002707Y003531D01*
X002717Y003655D02*
X002843Y003655D01*
X002843Y003774D02*
X002717Y003774D01*
X002717Y003892D02*
X002843Y003892D01*
X002843Y004011D02*
X002717Y004011D01*
X002319Y003774D02*
X002281Y003774D01*
X002281Y003831D02*
X002281Y003433D01*
X002021Y003433D01*
X001981Y003443D01*
X001944Y003464D01*
X001914Y003494D01*
X001893Y003531D01*
X001883Y003571D01*
X001883Y003831D01*
X002281Y003831D01*
X002281Y003655D02*
X002319Y003655D01*
X002319Y003537D02*
X002281Y003537D01*
X001892Y003537D02*
X000550Y003537D01*
X000550Y003655D02*
X001883Y003655D01*
X001883Y003774D02*
X000550Y003774D01*
X000550Y003892D02*
X001883Y003892D01*
X001965Y004248D02*
X000550Y004248D01*
X000550Y004366D02*
X002229Y004366D01*
X001868Y004485D02*
X000550Y004485D01*
X000550Y004603D02*
X001843Y004603D01*
X001843Y004722D02*
X000550Y004722D01*
X000550Y004840D02*
X001843Y004840D01*
X001843Y004959D02*
X000550Y004959D01*
X000550Y005077D02*
X001843Y005077D01*
X001848Y005196D02*
X000550Y005196D01*
X000550Y005314D02*
X004618Y005314D01*
X004500Y005196D02*
X003752Y005196D01*
X003680Y005433D02*
X004737Y005433D01*
X004855Y005551D02*
X003757Y005551D01*
X003757Y005670D02*
X004974Y005670D01*
X005020Y005788D02*
X003757Y005788D01*
X003757Y005907D02*
X005020Y005907D01*
X005020Y006025D02*
X003757Y006025D01*
X003757Y006144D02*
X005020Y006144D01*
X005020Y006262D02*
X003686Y006262D01*
X003580Y006381D02*
X005020Y006381D01*
X005020Y006499D02*
X003580Y006499D01*
X003580Y006618D02*
X005020Y006618D01*
X005020Y006736D02*
X003580Y006736D01*
X003580Y006855D02*
X005020Y006855D01*
X005020Y006973D02*
X003580Y006973D01*
X003580Y007092D02*
X005020Y007092D01*
X005020Y007210D02*
X003580Y007210D01*
X003580Y007329D02*
X005020Y007329D01*
X005020Y007447D02*
X003563Y007447D01*
X003480Y007566D02*
X005020Y007566D01*
X005020Y007684D02*
X002080Y007684D01*
X002080Y007803D02*
X004458Y007803D01*
X004422Y007921D02*
X002080Y007921D01*
X002080Y008040D02*
X004422Y008040D01*
X004422Y008158D02*
X002080Y008158D01*
X002080Y008277D02*
X004422Y008277D01*
X004456Y008395D02*
X002080Y008395D01*
X002080Y008514D02*
X004520Y008514D01*
X004520Y008632D02*
X002080Y008632D01*
X002080Y008751D02*
X004504Y008751D01*
X004385Y008869D02*
X002080Y008869D01*
X002080Y008988D02*
X004267Y008988D01*
X004148Y009106D02*
X002080Y009106D01*
X002080Y009225D02*
X004030Y009225D01*
X003911Y009343D02*
X002080Y009343D01*
X002080Y009462D02*
X003793Y009462D01*
X003674Y009580D02*
X002080Y009580D01*
X002080Y009699D02*
X003555Y009699D01*
X003437Y009817D02*
X002080Y009817D01*
X002281Y009936D02*
X002319Y009936D01*
X002319Y009933D02*
X002579Y009933D01*
X002619Y009943D01*
X002656Y009964D01*
X002686Y009994D01*
X002707Y010031D01*
X002717Y010071D01*
X002717Y010331D01*
X002319Y010331D01*
X002319Y009933D01*
X002319Y010054D02*
X002281Y010054D01*
X002281Y010173D02*
X002319Y010173D01*
X002319Y010291D02*
X002281Y010291D01*
X002590Y009936D02*
X002917Y009936D01*
X002843Y010054D02*
X002713Y010054D01*
X002717Y010173D02*
X002843Y010173D01*
X002843Y010291D02*
X002717Y010291D01*
X002717Y010410D02*
X002843Y010410D01*
X002843Y010528D02*
X002717Y010528D01*
X001020Y010528D02*
X000550Y010528D01*
X000550Y010410D02*
X001020Y010410D01*
X001020Y010291D02*
X000550Y010291D01*
X000550Y010173D02*
X001020Y010173D01*
X001020Y010054D02*
X000550Y010054D01*
X000550Y009936D02*
X001020Y009936D01*
X001020Y009817D02*
X000550Y009817D01*
X000550Y009699D02*
X001020Y009699D01*
X001020Y009580D02*
X000550Y009580D01*
X000550Y009462D02*
X001020Y009462D01*
X001020Y009343D02*
X000550Y009343D01*
X000550Y009225D02*
X001020Y009225D01*
X001020Y009106D02*
X000550Y009106D01*
X000550Y008988D02*
X001020Y008988D01*
X001020Y008869D02*
X000550Y008869D01*
X000550Y008751D02*
X001020Y008751D01*
X001020Y008632D02*
X000550Y008632D01*
X000550Y008514D02*
X001020Y008514D01*
X001020Y008395D02*
X000550Y008395D01*
X000550Y008277D02*
X001020Y008277D01*
X001020Y008158D02*
X000550Y008158D01*
X000550Y008040D02*
X001020Y008040D01*
X001020Y007921D02*
X000550Y007921D01*
X000550Y007803D02*
X001020Y007803D01*
X001020Y007684D02*
X000550Y007684D01*
X000550Y007566D02*
X001020Y007566D01*
X001020Y007447D02*
X000550Y007447D01*
X000550Y007329D02*
X001020Y007329D01*
X001020Y007210D02*
X000550Y007210D01*
X000550Y007092D02*
X001020Y007092D01*
X001020Y006973D02*
X000550Y006973D01*
X000550Y006855D02*
X001020Y006855D01*
X001020Y006736D02*
X000550Y006736D01*
X000550Y006618D02*
X001020Y006618D01*
X001020Y006499D02*
X000550Y006499D01*
X000550Y006381D02*
X001020Y006381D01*
X001020Y006262D02*
X000550Y006262D01*
X000550Y006144D02*
X001020Y006144D01*
X001020Y006025D02*
X000550Y006025D01*
X000550Y005907D02*
X001020Y005907D01*
X001023Y005788D02*
X000550Y005788D01*
X000550Y005670D02*
X001085Y005670D01*
X000550Y005551D02*
X001843Y005551D01*
X001920Y005433D02*
X000550Y005433D01*
X001580Y006144D02*
X001843Y006144D01*
X001914Y006262D02*
X001580Y006262D01*
X001580Y006381D02*
X003020Y006381D01*
X003020Y006499D02*
X001580Y006499D01*
X001580Y006618D02*
X003020Y006618D01*
X003020Y006736D02*
X001580Y006736D01*
X001580Y006855D02*
X003020Y006855D01*
X003020Y006973D02*
X001580Y006973D01*
X001580Y007092D02*
X001692Y007092D01*
X002686Y006262D02*
X002914Y006262D01*
X002843Y006144D02*
X002757Y006144D01*
X002757Y006025D02*
X002843Y006025D01*
X002843Y005907D02*
X002757Y005907D01*
X002757Y005788D02*
X002843Y005788D01*
X002843Y005670D02*
X002757Y005670D01*
X002757Y005551D02*
X002843Y005551D01*
X002920Y005433D02*
X002680Y005433D01*
X002752Y005196D02*
X002848Y005196D01*
X002843Y005077D02*
X002757Y005077D01*
X002757Y004959D02*
X002843Y004959D01*
X002843Y004840D02*
X002757Y004840D01*
X002757Y004722D02*
X002843Y004722D01*
X000550Y003181D02*
X005803Y003181D01*
X005803Y003063D02*
X000550Y003063D01*
X000550Y002944D02*
X005827Y002944D01*
X005876Y002826D02*
X000550Y002826D01*
X000550Y002707D02*
X005990Y002707D01*
X006610Y002707D02*
X006880Y002707D01*
X006880Y002774D02*
X006880Y002620D01*
X007280Y002620D01*
X007280Y003020D01*
X007126Y003020D01*
X006880Y002774D01*
X006932Y002826D02*
X006724Y002826D01*
X006773Y002944D02*
X007050Y002944D01*
X007280Y002944D02*
X007320Y002944D01*
X007320Y003020D02*
X007320Y002620D01*
X007280Y002620D01*
X007280Y002580D01*
X006880Y002580D01*
X006880Y002426D01*
X007126Y002180D01*
X007280Y002180D01*
X007280Y002580D01*
X007320Y002580D01*
X007320Y002620D01*
X007720Y002620D01*
X007720Y002774D01*
X007474Y003020D01*
X007320Y003020D01*
X007320Y002826D02*
X007280Y002826D01*
X007280Y002707D02*
X007320Y002707D01*
X007320Y002589D02*
X008280Y002589D01*
X008280Y002580D02*
X007880Y002580D01*
X007880Y002426D01*
X008126Y002180D01*
X008280Y002180D01*
X008280Y002580D01*
X008280Y002620D01*
X008280Y003020D01*
X008126Y003020D01*
X007880Y002774D01*
X007880Y002620D01*
X008280Y002620D01*
X008320Y002620D01*
X008320Y003020D01*
X008474Y003020D01*
X008720Y002774D01*
X008720Y002620D01*
X008320Y002620D01*
X008320Y002580D01*
X008720Y002580D01*
X008720Y002426D01*
X008474Y002180D01*
X008320Y002180D01*
X008320Y002580D01*
X008280Y002580D01*
X008320Y002589D02*
X009280Y002589D01*
X009280Y002580D02*
X008880Y002580D01*
X008880Y002426D01*
X009126Y002180D01*
X009280Y002180D01*
X009280Y002580D01*
X009280Y002620D01*
X009280Y003020D01*
X009126Y003020D01*
X008880Y002774D01*
X008880Y002620D01*
X009280Y002620D01*
X009320Y002620D01*
X009320Y003020D01*
X009474Y003020D01*
X009720Y002774D01*
X009720Y002620D01*
X009320Y002620D01*
X009320Y002580D01*
X009720Y002580D01*
X009720Y002426D01*
X009474Y002180D01*
X009320Y002180D01*
X009320Y002580D01*
X009280Y002580D01*
X009320Y002589D02*
X009840Y002589D01*
X009840Y002707D02*
X009720Y002707D01*
X009668Y002826D02*
X009875Y002826D01*
X009993Y002944D02*
X009550Y002944D01*
X009320Y002944D02*
X009280Y002944D01*
X009280Y002826D02*
X009320Y002826D01*
X009320Y002707D02*
X009280Y002707D01*
X009280Y002470D02*
X009320Y002470D01*
X009320Y002352D02*
X009280Y002352D01*
X009280Y002233D02*
X009320Y002233D01*
X009527Y002233D02*
X010016Y002233D01*
X009898Y002352D02*
X009645Y002352D01*
X009720Y002470D02*
X009840Y002470D01*
X010584Y002233D02*
X018800Y002233D01*
X018800Y002115D02*
X000550Y002115D01*
X000550Y002233D02*
X007073Y002233D01*
X006955Y002352D02*
X000550Y002352D01*
X000550Y002470D02*
X006880Y002470D01*
X007280Y002470D02*
X007320Y002470D01*
X007320Y002580D02*
X007320Y002180D01*
X007474Y002180D01*
X007720Y002426D01*
X007720Y002580D01*
X007320Y002580D01*
X007280Y002589D02*
X000550Y002589D01*
X000550Y001996D02*
X018800Y001996D01*
X018800Y001878D02*
X017987Y001878D01*
X017957Y001890D02*
X018247Y001770D01*
X018470Y001547D01*
X018590Y001257D01*
X018590Y000943D01*
X018470Y000653D01*
X018247Y000430D01*
X018053Y000350D01*
X018800Y000350D01*
X018800Y015850D01*
X018053Y015850D01*
X018247Y015770D01*
X018470Y015547D01*
X018590Y015257D01*
X018590Y014943D01*
X018470Y014653D01*
X018247Y014430D01*
X017957Y014310D01*
X017643Y014310D01*
X017353Y014430D01*
X017130Y014653D01*
X017010Y014943D01*
X017010Y015257D01*
X017130Y015547D01*
X017353Y015770D01*
X017546Y015850D01*
X001553Y015850D01*
X001747Y015770D01*
X001970Y015547D01*
X002090Y015257D01*
X002090Y014943D01*
X001970Y014653D01*
X001747Y014430D01*
X001457Y014310D01*
X001143Y014310D01*
X000853Y014430D01*
X000630Y014653D01*
X000550Y014846D01*
X000550Y001353D01*
X000630Y001547D01*
X000853Y001770D01*
X001143Y001890D01*
X001457Y001890D01*
X001747Y001770D01*
X001970Y001547D01*
X002090Y001257D01*
X002090Y000943D01*
X001970Y000653D01*
X001747Y000430D01*
X001553Y000350D01*
X017546Y000350D01*
X017353Y000430D01*
X017130Y000653D01*
X017010Y000943D01*
X017010Y001257D01*
X017130Y001547D01*
X017353Y001770D01*
X017643Y001890D01*
X017957Y001890D01*
X017613Y001878D02*
X001487Y001878D01*
X001758Y001759D02*
X017342Y001759D01*
X017223Y001641D02*
X001877Y001641D01*
X001980Y001522D02*
X017120Y001522D01*
X017071Y001404D02*
X002029Y001404D01*
X002078Y001285D02*
X017022Y001285D01*
X017010Y001167D02*
X002090Y001167D01*
X002090Y001048D02*
X017010Y001048D01*
X017016Y000930D02*
X002084Y000930D01*
X002035Y000811D02*
X017065Y000811D01*
X017114Y000693D02*
X001986Y000693D01*
X001891Y000574D02*
X017209Y000574D01*
X017327Y000456D02*
X001773Y000456D01*
X000571Y001404D02*
X000550Y001404D01*
X000550Y001522D02*
X000620Y001522D01*
X000550Y001641D02*
X000723Y001641D01*
X000842Y001759D02*
X000550Y001759D01*
X000550Y001878D02*
X001113Y001878D01*
X006797Y003063D02*
X012153Y003063D01*
X012289Y003181D02*
X006797Y003181D01*
X006895Y003300D02*
X012424Y003300D01*
X012560Y003418D02*
X007014Y003418D01*
X007132Y003537D02*
X012695Y003537D01*
X012658Y003690D02*
X012721Y003711D01*
X012780Y003741D01*
X012834Y003780D01*
X012880Y003826D01*
X012919Y003880D01*
X012949Y003939D01*
X012970Y004002D01*
X012980Y004067D01*
X012980Y004080D01*
X012320Y004080D01*
X012320Y004120D01*
X012280Y004120D01*
X012280Y004520D01*
X012007Y004520D01*
X011942Y004510D01*
X011879Y004489D01*
X011820Y004459D01*
X011766Y004420D01*
X011720Y004374D01*
X011681Y004320D01*
X011651Y004261D01*
X011630Y004198D01*
X011620Y004133D01*
X011620Y004120D01*
X012280Y004120D01*
X012280Y004080D01*
X012320Y004080D01*
X012320Y003680D01*
X012593Y003680D01*
X012658Y003690D01*
X012831Y003655D02*
X007251Y003655D01*
X007369Y003774D02*
X011775Y003774D01*
X011766Y003780D02*
X011820Y003741D01*
X011879Y003711D01*
X011942Y003690D01*
X012007Y003680D01*
X012280Y003680D01*
X012280Y004080D01*
X011620Y004080D01*
X011620Y004067D01*
X011630Y004002D01*
X011651Y003939D01*
X011681Y003880D01*
X011720Y003826D01*
X011766Y003780D01*
X011675Y003892D02*
X007488Y003892D01*
X007606Y004011D02*
X011629Y004011D01*
X011620Y004129D02*
X007725Y004129D01*
X007843Y004248D02*
X011646Y004248D01*
X011714Y004366D02*
X007962Y004366D01*
X008080Y004485D02*
X011870Y004485D01*
X011768Y004722D02*
X008317Y004722D01*
X008199Y004603D02*
X013924Y004603D01*
X013779Y004485D02*
X012730Y004485D01*
X012721Y004489D02*
X012658Y004510D01*
X012593Y004520D01*
X012320Y004520D01*
X012320Y004120D01*
X012980Y004120D01*
X012980Y004133D01*
X012970Y004198D01*
X012949Y004261D01*
X012919Y004320D01*
X012880Y004374D01*
X012834Y004420D01*
X012780Y004459D01*
X012721Y004489D01*
X012886Y004366D02*
X013643Y004366D01*
X013508Y004248D02*
X012954Y004248D01*
X012980Y004129D02*
X013372Y004129D01*
X013237Y004011D02*
X012971Y004011D01*
X012925Y003892D02*
X013101Y003892D01*
X012966Y003774D02*
X012825Y003774D01*
X012320Y003774D02*
X012280Y003774D01*
X012280Y003892D02*
X012320Y003892D01*
X012320Y004011D02*
X012280Y004011D01*
X012280Y004129D02*
X012320Y004129D01*
X012320Y004248D02*
X012280Y004248D01*
X012280Y004366D02*
X012320Y004366D01*
X012320Y004485D02*
X012280Y004485D01*
X013410Y003418D02*
X014020Y003418D01*
X014020Y003300D02*
X013275Y003300D01*
X013320Y003270D02*
X013320Y002870D01*
X013280Y002870D01*
X013280Y002830D01*
X013320Y002830D01*
X013320Y002870D01*
X013720Y002870D01*
X013720Y003024D01*
X013474Y003270D01*
X013320Y003270D01*
X013320Y003181D02*
X013280Y003181D01*
X013280Y003063D02*
X013320Y003063D01*
X013320Y002944D02*
X013280Y002944D01*
X013280Y002830D02*
X012880Y002830D01*
X012880Y002676D01*
X013126Y002430D01*
X013280Y002430D01*
X013280Y002830D01*
X013280Y002826D02*
X013320Y002826D01*
X013320Y002830D02*
X013320Y002430D01*
X013474Y002430D01*
X013720Y002676D01*
X013720Y002830D01*
X013320Y002830D01*
X013320Y002707D02*
X013280Y002707D01*
X013280Y002589D02*
X013320Y002589D01*
X013320Y002470D02*
X013280Y002470D01*
X013086Y002470D02*
X012327Y002470D01*
X012462Y002589D02*
X012968Y002589D01*
X012880Y002707D02*
X012597Y002707D01*
X012733Y002826D02*
X012880Y002826D01*
X012868Y002944D02*
X012880Y002944D01*
X013514Y002470D02*
X014029Y002470D01*
X013911Y002589D02*
X013632Y002589D01*
X013720Y002707D02*
X013840Y002707D01*
X013840Y002826D02*
X013720Y002826D01*
X013720Y002944D02*
X013840Y002944D01*
X013862Y003063D02*
X013681Y003063D01*
X013563Y003181D02*
X013980Y003181D01*
X014020Y003537D02*
X013545Y003537D01*
X013681Y003655D02*
X014020Y003655D01*
X014020Y003774D02*
X013816Y003774D01*
X013952Y003892D02*
X014020Y003892D01*
X014580Y003418D02*
X018800Y003418D01*
X018800Y003300D02*
X014580Y003300D01*
X014620Y003181D02*
X018800Y003181D01*
X018800Y003063D02*
X014738Y003063D01*
X014760Y002944D02*
X018800Y002944D01*
X018800Y002826D02*
X014760Y002826D01*
X014760Y002707D02*
X018800Y002707D01*
X018800Y002589D02*
X014689Y002589D01*
X014571Y002470D02*
X018800Y002470D01*
X018800Y002352D02*
X012189Y002352D01*
X012018Y002944D02*
X010607Y002944D01*
X009050Y002944D02*
X008550Y002944D01*
X008668Y002826D02*
X008932Y002826D01*
X008880Y002707D02*
X008720Y002707D01*
X008720Y002470D02*
X008880Y002470D01*
X008955Y002352D02*
X008645Y002352D01*
X008527Y002233D02*
X009073Y002233D01*
X008320Y002233D02*
X008280Y002233D01*
X008280Y002352D02*
X008320Y002352D01*
X008320Y002470D02*
X008280Y002470D01*
X008280Y002707D02*
X008320Y002707D01*
X008320Y002826D02*
X008280Y002826D01*
X008280Y002944D02*
X008320Y002944D01*
X008050Y002944D02*
X007550Y002944D01*
X007668Y002826D02*
X007932Y002826D01*
X007880Y002707D02*
X007720Y002707D01*
X007720Y002470D02*
X007880Y002470D01*
X007955Y002352D02*
X007645Y002352D01*
X007527Y002233D02*
X008073Y002233D01*
X007320Y002233D02*
X007280Y002233D01*
X007280Y002352D02*
X007320Y002352D01*
X010832Y006736D02*
X011753Y006736D01*
X011736Y007447D02*
X010080Y007447D01*
X010080Y007329D02*
X010633Y007329D01*
X010514Y007210D02*
X010080Y007210D01*
X010080Y007092D02*
X010396Y007092D01*
X010080Y007566D02*
X014020Y007566D01*
X014020Y007684D02*
X012758Y007684D01*
X012913Y007803D02*
X014020Y007803D01*
X014020Y007921D02*
X012984Y007921D01*
X013020Y008040D02*
X014020Y008040D01*
X014020Y008158D02*
X013020Y008158D01*
X012985Y008277D02*
X014020Y008277D01*
X014020Y008395D02*
X012916Y008395D01*
X012764Y008514D02*
X014020Y008514D01*
X014020Y008632D02*
X009330Y008632D01*
X009330Y008514D02*
X010336Y008514D01*
X010184Y008395D02*
X009330Y008395D01*
X009330Y008277D02*
X009581Y008277D01*
X009521Y008158D02*
X009330Y008158D01*
X009330Y008040D02*
X009520Y008040D01*
X009520Y007921D02*
X009330Y007921D01*
X009330Y007803D02*
X009520Y007803D01*
X009520Y007684D02*
X009330Y007684D01*
X009330Y007566D02*
X009520Y007566D01*
X009520Y007447D02*
X009330Y007447D01*
X009330Y007329D02*
X009520Y007329D01*
X009520Y007210D02*
X009330Y007210D01*
X009330Y007092D02*
X009520Y007092D01*
X010080Y007684D02*
X010342Y007684D01*
X010187Y007803D02*
X010080Y007803D01*
X010239Y008751D02*
X009330Y008751D01*
X008905Y009343D02*
X008830Y009343D01*
X008830Y009462D02*
X010251Y009462D01*
X010307Y009699D02*
X008830Y009699D01*
X008830Y009817D02*
X010172Y009817D01*
X011293Y009699D02*
X011807Y009699D01*
X011672Y009817D02*
X011428Y009817D01*
X011349Y009462D02*
X011751Y009462D01*
X011739Y008751D02*
X011361Y008751D01*
X011264Y008514D02*
X011836Y008514D01*
X011684Y008395D02*
X011416Y008395D01*
X011413Y007803D02*
X011687Y007803D01*
X011842Y007684D02*
X011258Y007684D01*
X012864Y007447D02*
X014020Y007447D01*
X014020Y007329D02*
X012963Y007329D01*
X013012Y007210D02*
X014020Y007210D01*
X014020Y007092D02*
X013020Y007092D01*
X013005Y006973D02*
X014020Y006973D01*
X014020Y006855D02*
X012956Y006855D01*
X012847Y006736D02*
X014020Y006736D01*
X014580Y006499D02*
X014801Y006499D01*
X014670Y006381D02*
X014580Y006381D01*
X014580Y006262D02*
X014609Y006262D01*
X014580Y006144D02*
X014580Y006144D01*
X014580Y006025D02*
X014580Y006025D01*
X014580Y005907D02*
X014622Y005907D01*
X014580Y005788D02*
X014701Y005788D01*
X014580Y005670D02*
X014877Y005670D01*
X014842Y007684D02*
X014580Y007684D01*
X014580Y007803D02*
X014687Y007803D01*
X014616Y007921D02*
X014580Y007921D01*
X014580Y008040D02*
X014580Y008040D01*
X014580Y008158D02*
X014580Y008158D01*
X014580Y008277D02*
X014615Y008277D01*
X014580Y008395D02*
X014684Y008395D01*
X014580Y008514D02*
X014836Y008514D01*
X014580Y008632D02*
X016573Y008632D01*
X016456Y008514D02*
X015764Y008514D01*
X015916Y008395D02*
X016338Y008395D01*
X016392Y008751D02*
X015861Y008751D01*
X015849Y009462D02*
X016404Y009462D01*
X016467Y009676D02*
X016326Y009817D01*
X016602Y009580D02*
X014580Y009580D01*
X014580Y009462D02*
X014751Y009462D01*
X014643Y009343D02*
X014580Y009343D01*
X014580Y009225D02*
X014594Y009225D01*
X014580Y009106D02*
X014580Y009106D01*
X014580Y008988D02*
X014589Y008988D01*
X014580Y008869D02*
X014638Y008869D01*
X014580Y008751D02*
X014739Y008751D01*
X014020Y008751D02*
X012861Y008751D01*
X012962Y008869D02*
X014020Y008869D01*
X014020Y008988D02*
X013011Y008988D01*
X013020Y009106D02*
X014020Y009106D01*
X014020Y009225D02*
X013006Y009225D01*
X012957Y009343D02*
X014020Y009343D01*
X014020Y009462D02*
X012849Y009462D01*
X012793Y009699D02*
X014020Y009699D01*
X014020Y009817D02*
X012928Y009817D01*
X012990Y009936D02*
X014020Y009936D01*
X014020Y010054D02*
X013020Y010054D01*
X013020Y010173D02*
X014020Y010173D01*
X014020Y010291D02*
X012979Y010291D01*
X014020Y009580D02*
X008830Y009580D01*
X007520Y009580D02*
X006080Y009580D01*
X006080Y009462D02*
X007251Y009462D01*
X007143Y009343D02*
X006080Y009343D01*
X006080Y009225D02*
X007094Y009225D01*
X007080Y009106D02*
X006080Y009106D01*
X006080Y008988D02*
X007089Y008988D01*
X007138Y008869D02*
X006080Y008869D01*
X006080Y008751D02*
X007239Y008751D01*
X007520Y008632D02*
X006080Y008632D01*
X006080Y008514D02*
X007336Y008514D01*
X007184Y008395D02*
X006644Y008395D01*
X006678Y008277D02*
X007115Y008277D01*
X007080Y008158D02*
X006678Y008158D01*
X006678Y008040D02*
X007080Y008040D01*
X007116Y007921D02*
X006678Y007921D01*
X006642Y007803D02*
X007187Y007803D01*
X007282Y007684D02*
X006580Y007684D01*
X006580Y007566D02*
X007270Y007566D01*
X007270Y007447D02*
X006580Y007447D01*
X006580Y007329D02*
X007270Y007329D01*
X008626Y007329D02*
X008633Y007329D01*
X007307Y009699D02*
X006080Y009699D01*
X006080Y009817D02*
X007172Y009817D01*
X007110Y009936D02*
X006080Y009936D01*
X006080Y010054D02*
X007080Y010054D01*
X007080Y010173D02*
X006080Y010173D01*
X006080Y010291D02*
X007121Y010291D01*
X007199Y010410D02*
X006080Y010410D01*
X006080Y010528D02*
X007371Y010528D01*
X007520Y010647D02*
X006080Y010647D01*
X006080Y010765D02*
X007569Y010765D01*
X006080Y010884D02*
X010620Y010884D01*
X010538Y011002D02*
X006080Y011002D01*
X006080Y011121D02*
X010520Y011121D01*
X010520Y011239D02*
X006080Y011239D01*
X003270Y013728D02*
X000550Y013728D01*
X000550Y013846D02*
X003270Y013846D01*
X003270Y013965D02*
X000550Y013965D01*
X000550Y014083D02*
X003270Y014083D01*
X003270Y014202D02*
X000550Y014202D01*
X000550Y014320D02*
X001119Y014320D01*
X000844Y014439D02*
X000550Y014439D01*
X000550Y014557D02*
X000726Y014557D01*
X000621Y014676D02*
X000550Y014676D01*
X000550Y014794D02*
X000572Y014794D01*
X001481Y014320D02*
X003270Y014320D01*
X003270Y014439D02*
X001756Y014439D01*
X001874Y014557D02*
X003270Y014557D01*
X003278Y014676D02*
X001979Y014676D01*
X002028Y014794D02*
X003348Y014794D01*
X002077Y014913D02*
X017023Y014913D01*
X017010Y015031D02*
X002090Y015031D01*
X002090Y015150D02*
X017010Y015150D01*
X017015Y015268D02*
X002085Y015268D01*
X002036Y015387D02*
X017064Y015387D01*
X017113Y015505D02*
X001987Y015505D01*
X001894Y015624D02*
X017206Y015624D01*
X017325Y015742D02*
X001775Y015742D01*
X001194Y013609D02*
X000550Y013609D01*
X000550Y013491D02*
X001055Y013491D01*
X001020Y013372D02*
X000550Y013372D01*
X000550Y013254D02*
X001020Y013254D01*
X001020Y013135D02*
X000550Y013135D01*
X000550Y013017D02*
X001020Y013017D01*
X001020Y012898D02*
X000550Y012898D01*
X000550Y012780D02*
X001020Y012780D01*
X001020Y012661D02*
X000550Y012661D01*
X000550Y012543D02*
X001020Y012543D01*
X001020Y012424D02*
X000550Y012424D01*
X000550Y012306D02*
X001020Y012306D01*
X001020Y012187D02*
X000550Y012187D01*
X000550Y012069D02*
X001020Y012069D01*
X001020Y011950D02*
X000550Y011950D01*
X000550Y011832D02*
X001020Y011832D01*
X001020Y011713D02*
X000550Y011713D01*
X000550Y011595D02*
X001020Y011595D01*
X001020Y011476D02*
X000550Y011476D01*
X000550Y011358D02*
X001020Y011358D01*
X001020Y011239D02*
X000550Y011239D01*
X000550Y011121D02*
X001020Y011121D01*
X001020Y011002D02*
X000550Y011002D01*
X000550Y010884D02*
X001020Y010884D01*
X001020Y010765D02*
X000550Y010765D01*
X000550Y010647D02*
X001020Y010647D01*
X010002Y014794D02*
X017072Y014794D01*
X017121Y014676D02*
X010072Y014676D01*
X010080Y014557D02*
X017226Y014557D01*
X017344Y014439D02*
X010080Y014439D01*
X010080Y014320D02*
X017619Y014320D01*
X017981Y014320D02*
X018800Y014320D01*
X018800Y014202D02*
X010151Y014202D01*
X010241Y014083D02*
X018800Y014083D01*
X018800Y013965D02*
X010290Y013965D01*
X010297Y013846D02*
X018800Y013846D01*
X018800Y013728D02*
X010287Y013728D01*
X010238Y013609D02*
X018800Y013609D01*
X018800Y013491D02*
X010143Y013491D01*
X014375Y013372D02*
X018800Y013372D01*
X018800Y013254D02*
X014539Y013254D01*
X014580Y013135D02*
X018800Y013135D01*
X018800Y013017D02*
X014580Y013017D01*
X014580Y012898D02*
X018800Y012898D01*
X018800Y012780D02*
X014580Y012780D01*
X014580Y011713D02*
X014776Y011713D01*
X014580Y011595D02*
X016637Y011595D01*
X016419Y011476D02*
X015835Y011476D01*
X015876Y010765D02*
X016378Y010765D01*
X016538Y010647D02*
X015667Y010647D01*
X015729Y010528D02*
X016477Y010528D01*
X016352Y010410D02*
X015901Y010410D01*
X014933Y010647D02*
X014580Y010647D01*
X014580Y010765D02*
X014724Y010765D01*
X014632Y010884D02*
X014580Y010884D01*
X014580Y011002D02*
X014583Y011002D01*
X014580Y011121D02*
X014580Y011121D01*
X014580Y011239D02*
X014600Y011239D01*
X014580Y011358D02*
X014649Y011358D01*
X014580Y011476D02*
X014765Y011476D01*
X014871Y010528D02*
X014580Y010528D01*
X014580Y010410D02*
X014699Y010410D01*
X014621Y010291D02*
X014580Y010291D01*
X014580Y010173D02*
X014580Y010173D01*
X014580Y010054D02*
X014580Y010054D01*
X014580Y009936D02*
X014610Y009936D01*
X014580Y009817D02*
X014672Y009817D01*
X014580Y009699D02*
X014807Y009699D01*
X018256Y014439D02*
X018800Y014439D01*
X018800Y014557D02*
X018374Y014557D01*
X018479Y014676D02*
X018800Y014676D01*
X018800Y014794D02*
X018528Y014794D01*
X018577Y014913D02*
X018800Y014913D01*
X018800Y015031D02*
X018590Y015031D01*
X018590Y015150D02*
X018800Y015150D01*
X018800Y015268D02*
X018585Y015268D01*
X018536Y015387D02*
X018800Y015387D01*
X018800Y015505D02*
X018487Y015505D01*
X018394Y015624D02*
X018800Y015624D01*
X018800Y015742D02*
X018275Y015742D01*
X016369Y003774D02*
X015884Y003774D01*
X015688Y003655D02*
X016518Y003655D01*
X018258Y001759D02*
X018800Y001759D01*
X018800Y001641D02*
X018377Y001641D01*
X018480Y001522D02*
X018800Y001522D01*
X018800Y001404D02*
X018529Y001404D01*
X018578Y001285D02*
X018800Y001285D01*
X018800Y001167D02*
X018590Y001167D01*
X018590Y001048D02*
X018800Y001048D01*
X018800Y000930D02*
X018584Y000930D01*
X018535Y000811D02*
X018800Y000811D01*
X018800Y000693D02*
X018486Y000693D01*
X018391Y000574D02*
X018800Y000574D01*
X018800Y000456D02*
X018273Y000456D01*
D18*
X006300Y008100D03*
X004800Y008100D03*
X005300Y009850D03*
X005300Y012100D03*
M02*
