%
M48
M72
T01C0.0236
T02C0.0315
T03C0.0320
T04C0.0394
T05C0.0400
T06C0.1260
%
T01
X4800Y8100
X6300Y8100
X5300Y9850
X5300Y12100
T02
X3300Y12350
X3300Y11350
X2300Y11350
X2300Y12350
X2300Y10350
X3300Y10350
X3300Y5850
X2300Y5850
X2300Y4850
X2300Y3850
X3300Y3850
X3300Y4850
T03
X7300Y6600
X8300Y6600
X9300Y6600
X10300Y6600
X10800Y8100
X10800Y9100
X10800Y10100
X12300Y10100
X12300Y9100
X12300Y8100
X12300Y7100
X12300Y6100
X12300Y5100
X12300Y4100
X13300Y2850
X14300Y2850
X15300Y4100
X15300Y5100
X15300Y6100
X15300Y7100
X15300Y8100
X15300Y9100
X15300Y10100
X15300Y11100
X15300Y12100
X12300Y12100
X12300Y11100
X7800Y10100
X7800Y9100
X7800Y8100
X7300Y2600
X8300Y2600
X9300Y2600
X10300Y2600
T04
X6300Y3100
X6300Y6100
X7800Y13850
X8800Y13850
X9800Y13850
T05
X17050Y11100
X17050Y10100
X17050Y9100
X17050Y8100
X17050Y7100
X17050Y6100
X17050Y5100
X17050Y4100
T06
X1300Y1100
X17800Y1100
X17800Y15100
X1300Y15100
M30
